<svg width="96" height="96" viewBox="0 0 96 96" fill="none" xmlns="http://www.w3.org/2000/svg">
<g clip-path="url(#clip0_111_653)">
<path d="M92 48L82.24 36.84L83.6 22.08L69.16 18.8L61.6 6L48 11.84L34.4 6L26.84 18.76L12.4 22L13.76 36.8L4 48L13.76 59.16L12.4 73.96L26.84 77.24L34.4 90L48 84.12L61.6 89.96L69.16 77.2L83.6 73.92L82.24 59.16L92 48ZM37.52 64.04L28 54.44C26.44 52.88 26.44 50.36 28 48.8L28.28 48.52C29.84 46.96 32.4 46.96 33.96 48.52L40.4 55L61 34.36C62.56 32.8 65.12 32.8 66.68 34.36L66.96 34.64C68.52 36.2 68.52 38.72 66.96 40.28L43.28 64.04C41.64 65.6 39.12 65.6 37.52 64.04Z" fill="#00A44F"/>
</g>
<defs>
<clipPath id="clip0_111_653">
<rect width="96" height="96" fill="white"/>
</clipPath>
</defs>
</svg>
