<svg width="188" height="40" viewBox="0 0 188 40" fill="none" xmlns="http://www.w3.org/2000/svg">
<path d="M10.03 8.00806H7.223C6.40233 7.96668 5.58195 8.09525 4.81328 8.38572C4.04461 8.67619 3.34422 9.12228 2.756 9.69606C0.928004 11.5681 0.971004 14.2981 0.977004 14.3951V25.5891C0.977004 25.7021 0.928004 28.4321 2.757 30.3041C3.34507 30.8781 4.04541 31.3245 4.8141 31.6151C5.58279 31.9058 6.40324 32.0344 7.224 31.9931H10.029C10.2357 31.9917 10.4335 31.9086 10.5791 31.7619C10.7247 31.6152 10.8063 31.4168 10.806 31.2101V8.79006C10.806 8.58352 10.7243 8.38537 10.5787 8.23886C10.4332 8.09235 10.2365 8.00938 10.03 8.00806ZM9.263 30.4331H7.224C6.61187 30.4705 5.99854 30.3826 5.42151 30.1749C4.84448 29.9672 4.31587 29.644 3.868 29.2251C2.498 27.8281 2.525 25.6431 2.525 25.6051V14.3801C2.525 14.3801 2.509 12.1731 3.868 10.7761C4.31457 10.3585 4.84137 10.0361 5.4164 9.82842C5.99143 9.62075 6.60268 9.53217 7.213 9.56806H9.263V30.4331Z" fill="white"/>
<path d="M5.07698 21.3861C5.05841 21.1435 4.94426 20.9183 4.75963 20.7599C4.575 20.6015 4.33502 20.523 4.09248 20.5416C3.84994 20.5601 3.62471 20.6743 3.46633 20.8589C3.30796 21.0435 3.22941 21.2835 3.24798 21.5261C3.26654 21.7686 3.3807 21.9938 3.56533 22.1522C3.65675 22.2306 3.76272 22.2903 3.87719 22.3277C3.99166 22.3652 4.11238 22.3798 4.23248 22.3706C4.35257 22.3614 4.46968 22.3286 4.57711 22.2742C4.68455 22.2197 4.7802 22.1446 4.85862 22.0532C4.93704 21.9618 4.99669 21.8558 5.03415 21.7414C5.07162 21.6269 5.08617 21.5062 5.07698 21.3861ZM5.99398 20.4751C6.23631 20.4737 6.46827 20.3765 6.63916 20.2047C6.81006 20.0329 6.90598 19.8004 6.90598 19.5581C6.89062 19.3258 6.78753 19.1082 6.61763 18.9491C6.44772 18.7901 6.2237 18.7016 5.99098 18.7016C5.75825 18.7016 5.53423 18.7901 5.36433 18.9491C5.19442 19.1082 5.09134 19.3258 5.07598 19.5581C5.07755 19.8009 5.17481 20.0334 5.34665 20.2051C5.5185 20.3767 5.75109 20.4737 5.99398 20.4751ZM6.90598 21.3861C6.89353 21.5078 6.90556 21.6307 6.94137 21.7477C6.97718 21.8647 7.03603 21.9734 7.11447 22.0673C7.19291 22.1612 7.28934 22.2384 7.39809 22.2945C7.50685 22.3505 7.62571 22.3842 7.7477 22.3936C7.86968 22.403 7.99231 22.388 8.10838 22.3492C8.22444 22.3105 8.33158 22.249 8.42349 22.1682C8.51539 22.0875 8.59021 21.9891 8.64354 21.879C8.69686 21.7689 8.72761 21.6492 8.73398 21.5271C8.74589 21.2884 8.66415 21.0545 8.50617 20.8751C8.34818 20.6958 8.12643 20.5853 7.88814 20.567C7.64985 20.5488 7.41386 20.6243 7.2304 20.7774C7.04695 20.9306 6.93055 21.1483 6.90598 21.3861ZM5.99398 22.3031C5.87369 22.3023 5.75443 22.3253 5.64302 22.3707C5.53161 22.416 5.43023 22.4829 5.34466 22.5675C5.25909 22.652 5.19101 22.7526 5.14431 22.8634C5.09761 22.9743 5.0732 23.0933 5.07248 23.2136C5.07176 23.3338 5.09473 23.4531 5.1401 23.5645C5.18547 23.6759 5.25233 23.7773 5.33688 23.8629C5.42143 23.9484 5.522 24.0165 5.63286 24.0632C5.74372 24.1099 5.86269 24.1343 5.98298 24.1351C6.22592 24.1365 6.45948 24.0414 6.6323 23.8707C6.80511 23.6999 6.90302 23.4675 6.90448 23.2246C6.90594 22.9816 6.81083 22.7481 6.64008 22.5752C6.46932 22.4024 6.23692 22.3045 5.99398 22.3031ZM3.94998 14.9071C3.94998 15.1755 4.00285 15.4413 4.10557 15.6893C4.20829 15.9373 4.35885 16.1626 4.54865 16.3524C4.73845 16.5422 4.96378 16.6927 5.21177 16.7955C5.45976 16.8982 5.72556 16.9511 5.99398 16.9511C6.2624 16.9511 6.52819 16.8982 6.77618 16.7955C7.02417 16.6927 7.2495 16.5422 7.4393 16.3524C7.62911 16.1626 7.77967 15.9373 7.88239 15.6893C7.98511 15.4413 8.03798 15.1755 8.03798 14.9071C8.03798 14.3648 7.82258 13.8448 7.43916 13.4614C7.05574 13.078 6.53571 12.8626 5.99348 12.8626C5.45124 12.8626 4.93122 13.078 4.5478 13.4614C4.16438 13.8448 3.94898 14.3648 3.94898 14.9071H3.94998ZM6.79198 14.9071C6.79577 15.0143 6.77793 15.1212 6.73951 15.2214C6.70109 15.3216 6.64288 15.413 6.56836 15.4902C6.49384 15.5674 6.40453 15.6288 6.30576 15.6708C6.20699 15.7127 6.10078 15.7343 5.99348 15.7343C5.88617 15.7343 5.77997 15.7127 5.6812 15.6708C5.58243 15.6288 5.49312 15.5674 5.41859 15.4902C5.34407 15.413 5.28586 15.3216 5.24745 15.2214C5.20903 15.1212 5.19118 15.0143 5.19498 14.9071C5.2023 14.7002 5.28963 14.5042 5.43858 14.3604C5.58753 14.2167 5.78646 14.1363 5.99348 14.1363C6.20049 14.1363 6.39943 14.2167 6.54837 14.3604C6.69732 14.5042 6.78465 14.7002 6.79198 14.9071ZM24.023 25.6051V14.4111C24.023 14.2981 24.072 11.5681 22.243 9.69606C21.6548 9.12228 20.9544 8.67619 20.1857 8.38572C19.417 8.09525 18.5967 7.96668 17.776 8.00806H14.976C14.7686 8.00806 14.5697 8.09045 14.423 8.2371C14.2764 8.38375 14.194 8.58266 14.194 8.79006V31.2101C14.194 31.4175 14.2764 31.6164 14.423 31.763C14.5697 31.9097 14.7686 31.9921 14.976 31.9921H17.776C18.5967 32.0335 19.4171 31.905 20.1857 31.6145C20.9544 31.324 21.6548 30.8779 22.243 30.3041C24.072 28.4321 24.029 25.7021 24.023 25.6051ZM21.132 29.2151C20.6867 29.6365 20.1596 29.9621 19.5833 30.1716C19.0071 30.3811 18.394 30.4701 17.782 30.4331H15.737V9.56706H17.76C18.3747 9.52744 18.9911 9.61419 19.571 9.82195C20.151 10.0297 20.6822 10.3541 21.132 10.7751C22.502 12.1721 22.475 14.3571 22.475 14.3951V25.6271C22.4689 26.9445 21.9926 28.2175 21.132 29.2151Z" fill="white"/>
<path d="M18.3 15.6089C18.3006 15.4884 18.2776 15.369 18.2321 15.2574C18.1866 15.1459 18.1195 15.0444 18.0348 14.9587C17.9501 14.873 17.8493 14.8049 17.7382 14.7582C17.6271 14.7115 17.508 14.6871 17.3875 14.6864C17.267 14.6858 17.1476 14.7088 17.036 14.7543C16.9244 14.7999 16.8229 14.8669 16.7372 14.9516C16.6516 15.0363 16.5834 15.1371 16.5367 15.2482C16.49 15.3593 16.4656 15.4784 16.465 15.5989C16.4637 15.8421 16.559 16.0759 16.73 16.2488C16.9011 16.4217 17.1338 16.5196 17.377 16.5209C17.6202 16.5222 17.854 16.4269 18.0269 16.2559C18.1998 16.0848 18.2987 15.8521 18.3 15.6089ZM19.211 16.5199C18.9678 16.5199 18.7345 16.6165 18.5626 16.7885C18.3906 16.9605 18.294 17.1937 18.294 17.4369C18.294 17.6801 18.3906 17.9134 18.5626 18.0853C18.7345 18.2573 18.9678 18.3539 19.211 18.3539C19.4542 18.3539 19.6874 18.2573 19.8594 18.0853C20.0314 17.9134 20.128 17.6801 20.128 17.4369C20.128 17.1937 20.0314 16.9605 19.8594 16.7885C19.6874 16.6165 19.4542 16.5199 19.211 16.5199ZM21.04 14.6919C20.7968 14.6919 20.5635 14.7885 20.3916 14.9605C20.2196 15.1325 20.123 15.3657 20.123 15.6089C20.123 15.8521 20.2196 16.0854 20.3916 16.2573C20.5635 16.4293 20.7968 16.5259 21.04 16.5259C21.2832 16.5259 21.5164 16.4293 21.6884 16.2573C21.8604 16.0854 21.957 15.8521 21.957 15.6089C21.957 15.3657 21.8604 15.1325 21.6884 14.9605C21.5164 14.7885 21.2832 14.6919 21.04 14.6919ZM19.211 14.6919C19.3314 14.6926 19.4508 14.6696 19.5623 14.6242C19.6739 14.5788 19.7753 14.5119 19.861 14.4272C19.9467 14.3426 20.0148 14.2419 20.0616 14.1309C20.1083 14.0199 20.1328 13.9008 20.1335 13.7804C20.1342 13.66 20.1112 13.5406 20.0658 13.4291C20.0204 13.3176 19.9534 13.2161 19.8688 13.1304C19.7841 13.0447 19.6835 12.9766 19.5725 12.9298C19.4615 12.8831 19.3424 12.8586 19.222 12.8579C18.9788 12.8565 18.745 12.9517 18.572 13.1226C18.3989 13.2936 18.3009 13.5262 18.2995 13.7694C18.298 14.0126 18.3932 14.2464 18.5642 14.4195C18.7351 14.5925 18.9678 14.6905 19.211 14.6919ZM19.211 20.0379C18.667 20.0379 18.1453 20.254 17.7607 20.6386C17.3761 21.0233 17.16 21.545 17.16 22.0889C17.16 22.6329 17.3761 23.1546 17.7607 23.5392C18.1453 23.9238 18.667 24.1399 19.211 24.1399C19.7549 24.1399 20.2766 23.9238 20.6613 23.5392C21.0459 23.1546 21.262 22.6329 21.262 22.0889C21.262 21.545 21.0459 21.0233 20.6613 20.6386C20.2766 20.254 19.7549 20.0379 19.211 20.0379ZM19.211 22.8859C18.9977 22.8859 18.7932 22.8012 18.6425 22.6504C18.4917 22.4997 18.407 22.2952 18.407 22.0819C18.407 21.8687 18.4917 21.6642 18.6425 21.5134C18.7932 21.3626 18.9977 21.2779 19.211 21.2779C19.4242 21.2779 19.6287 21.3626 19.7795 21.5134C19.9303 21.6642 20.015 21.8687 20.015 22.0819C20.015 22.2952 19.9303 22.4997 19.7795 22.6504C19.6287 22.8012 19.4242 22.8859 19.211 22.8859ZM49.91 17.3619H47.253C47.1866 16.9534 47.0442 16.5609 46.833 16.2049C46.6358 15.8711 46.3781 15.5771 46.073 15.3379C45.7636 15.0977 45.4123 14.917 45.037 14.8049C44.6348 14.6792 44.2154 14.6172 43.794 14.6209C43.004 14.6209 42.303 14.8199 41.692 15.2169C41.081 15.6099 40.602 16.1879 40.257 16.9499C39.911 17.7079 39.739 18.6339 39.739 19.7269C39.739 20.8399 39.911 21.7769 40.257 22.5399C40.607 23.2969 41.086 23.8699 41.692 24.2589C42.302 24.6419 43.001 24.8339 43.787 24.8339C44.223 24.8339 44.63 24.7769 45.008 24.6639C45.3788 24.5516 45.7274 24.3756 46.038 24.1439C46.6777 23.6631 47.1115 22.9578 47.252 22.1699L49.909 22.1849C49.8126 22.8672 49.5938 23.5265 49.263 24.1309C48.9345 24.739 48.4988 25.2828 47.977 25.7359C47.447 26.1959 46.827 26.5549 46.117 26.8159C45.407 27.0709 44.617 27.1989 43.751 27.1989C42.473 27.1989 41.331 26.9029 40.328 26.3109C39.324 25.7189 38.534 24.8649 37.956 23.7469C37.378 22.6299 37.089 21.2899 37.089 19.7269C37.089 18.1599 37.381 16.8199 37.963 15.7069C38.545 14.5899 39.339 13.7349 40.343 13.1429C41.346 12.5519 42.483 12.2559 43.751 12.2559C44.561 12.2559 45.314 12.3689 46.01 12.5959C46.6862 12.813 47.3167 13.1526 47.87 13.5979C48.415 14.0339 48.863 14.5679 49.213 15.2029C49.568 15.8329 49.8 16.5529 49.909 17.3629L49.91 17.3619ZM54.78 12.4549V26.9999H52.208V12.4539L54.78 12.4549ZM64.376 22.4119V16.0899H66.948V26.9999H64.455V25.0609H64.341C64.0954 25.6711 63.6721 26.1934 63.126 26.5599C62.568 26.9479 61.879 27.1419 61.06 27.1419C60.345 27.1419 59.713 26.9829 59.163 26.6659C58.619 26.3439 58.193 25.8779 57.885 25.2669C57.577 24.6509 57.423 23.9079 57.423 23.0369V16.0899H59.994V22.6379C59.994 23.3299 60.184 23.8779 60.563 24.2859C60.941 24.6929 61.438 24.8959 62.054 24.8959C62.433 24.8959 62.8 24.8039 63.154 24.6199C63.51 24.4349 63.801 24.1599 64.028 23.7959C64.26 23.4259 64.376 22.9649 64.376 22.4109V22.4119ZM69.705 26.9999V12.4539H72.275V17.8939H72.382C72.5385 17.5933 72.7269 17.3103 72.944 17.0499C73.185 16.7469 73.512 16.4889 73.924 16.2759C74.336 16.0579 74.861 15.9489 75.5 15.9489C76.343 15.9489 77.103 16.1639 77.78 16.5949C78.462 17.0209 79.002 17.6529 79.4 18.4909C79.802 19.3249 80.003 20.3479 80.003 21.5599C80.003 22.7579 79.807 23.7759 79.413 24.6139C79.021 25.4519 78.486 26.0909 77.809 26.5309C77.132 26.9709 76.365 27.1909 75.507 27.1909C74.882 27.1909 74.364 27.0879 73.952 26.8789C73.574 26.6963 73.2361 26.4404 72.958 26.1259C72.7369 25.8652 72.5438 25.582 72.382 25.2809H72.233V26.9999H69.705ZM72.226 21.5459C72.226 22.2509 72.326 22.8689 72.525 23.3989C72.728 23.9289 73.019 24.3439 73.398 24.6419C73.782 24.9359 74.246 25.0819 74.79 25.0819C75.358 25.0819 75.834 24.9309 76.218 24.6279C76.601 24.3199 76.89 23.9009 77.084 23.3709C77.283 22.8359 77.382 22.2269 77.382 21.5459C77.382 20.8679 77.285 20.2669 77.092 19.7409C76.897 19.2159 76.608 18.8039 76.225 18.5059C75.841 18.2069 75.363 18.0579 74.79 18.0579C74.24 18.0579 73.774 18.2029 73.391 18.4909C73.007 18.7809 72.716 19.1849 72.517 19.7059C72.323 20.2259 72.226 20.8399 72.226 21.5459ZM87.019 27.2129C85.925 27.2129 84.98 26.9859 84.185 26.5309C83.398 26.0761 82.7628 25.3992 82.359 24.5849C81.933 23.7419 81.72 22.7499 81.72 21.6089C81.72 20.4869 81.933 19.5019 82.36 18.6549C82.79 17.8029 83.392 17.1399 84.163 16.6659C84.935 16.1879 85.842 15.9489 86.883 15.9489C87.556 15.9489 88.19 16.0579 88.787 16.2759C89.3836 16.4863 89.9265 16.8257 90.377 17.2699C90.842 17.7199 91.207 18.2929 91.472 18.9889C91.737 19.6789 91.869 20.5039 91.869 21.4599V22.2489H82.928V20.5159H89.405C89.4087 20.0582 89.2988 19.6067 89.085 19.2019C88.8845 18.8213 88.5823 18.5039 88.212 18.2849C87.842 18.0629 87.412 17.9519 86.919 17.9519C86.394 17.9519 85.932 18.0789 85.534 18.3349C85.1425 18.5794 84.8219 18.9221 84.604 19.3289C84.386 19.7369 84.274 20.1839 84.27 20.6719V22.1849C84.27 22.8189 84.386 23.3639 84.618 23.8179C84.85 24.2679 85.174 24.6139 85.591 24.8549C86.008 25.0919 86.495 25.2099 87.054 25.2099C87.428 25.2099 87.767 25.1579 88.07 25.0539C88.373 24.9449 88.635 24.7869 88.858 24.5779C89.08 24.3699 89.248 24.1119 89.362 23.8039L91.762 24.0739C91.619 24.6924 91.3209 25.2643 90.896 25.7359C90.475 26.2039 89.936 26.5689 89.277 26.8289C88.619 27.0849 87.866 27.2129 87.019 27.2129ZM111.072 12.4539V26.9999H108.728L101.875 17.0919H101.754V26.9999H99.119V12.4539H101.477L108.324 22.3689H108.451V12.4539H111.072ZM113.83 26.9999V16.0899H116.401V26.9999H113.83ZM115.122 14.5429C114.732 14.5496 114.355 14.4043 114.071 14.1379C113.931 14.0145 113.82 13.8625 113.744 13.6922C113.668 13.5219 113.629 13.3373 113.631 13.1509C113.631 12.7619 113.777 12.4329 114.071 12.1629C114.353 11.8927 114.731 11.7447 115.122 11.7509C115.534 11.7509 115.884 11.8889 116.173 12.1629C116.467 12.4329 116.614 12.7629 116.614 13.1509C116.614 13.5339 116.467 13.8629 116.173 14.1379C115.884 14.4079 115.534 14.5429 115.122 14.5429ZM121.615 20.6079V26.9999H119.044V16.0899H121.502V17.9449H121.63C121.87 17.3474 122.289 16.8388 122.83 16.4889C123.384 16.1289 124.068 15.9489 124.882 15.9489C125.635 15.9489 126.291 16.1089 126.85 16.4319C127.413 16.7539 127.849 17.2199 128.157 17.8309C128.469 18.4409 128.623 19.1829 128.618 20.0539V26.9999H126.047V20.4519C126.047 19.7219 125.858 19.1519 125.479 18.7399C125.105 18.3279 124.587 18.1219 123.924 18.1219C123.474 18.1219 123.074 18.2219 122.723 18.4209C122.375 18.6177 122.091 18.9112 121.907 19.2659C121.712 19.6349 121.615 20.0819 121.615 20.6079ZM136.679 16.0909V18.0789H130.408V16.0909H136.679ZM131.956 13.4769H134.527V23.7199C134.527 24.0649 134.579 24.3299 134.684 24.5149C134.793 24.6949 134.935 24.8179 135.11 24.8849C135.285 24.9509 135.479 24.9839 135.692 24.9839C135.853 24.9839 136 24.9719 136.132 24.9479C136.27 24.9249 136.374 24.9039 136.445 24.8849L136.878 26.8949C136.685 26.9573 136.488 27.0094 136.289 27.0509C136.038 27.1069 135.73 27.1409 135.365 27.1509C134.721 27.1689 134.141 27.0719 133.625 26.8589C133.124 26.6531 132.696 26.3016 132.397 25.8499C132.098 25.3959 131.952 24.8279 131.956 24.1459V13.4769ZM143.542 27.2129C142.448 27.2129 141.504 26.9859 140.708 26.5309C139.921 26.0761 139.286 25.3991 138.883 24.5849C138.457 23.7419 138.244 22.7499 138.244 21.6089C138.244 20.4869 138.457 19.5019 138.883 18.6549C139.314 17.8029 139.915 17.1399 140.687 16.6659C141.459 16.1879 142.365 15.9489 143.407 15.9489C144.079 15.9489 144.714 16.0579 145.31 16.2759C145.907 16.4859 146.45 16.8254 146.901 17.2699C147.365 17.7199 147.73 18.2929 147.995 18.9889C148.26 19.6789 148.393 20.5039 148.393 21.4599V22.2489H139.451V20.5159H145.928C145.932 20.0582 145.823 19.6067 145.609 19.2019C145.408 18.8214 145.105 18.504 144.735 18.2849C144.366 18.0629 143.935 17.9519 143.442 17.9519C142.917 17.9519 142.455 18.0789 142.058 18.3349C141.666 18.5793 141.345 18.922 141.127 19.3289C140.907 19.7425 140.793 20.2037 140.793 20.6719V22.1849C140.793 22.8189 140.909 23.3639 141.141 23.8179C141.373 24.2679 141.698 24.6139 142.114 24.8549C142.531 25.0919 143.019 25.2099 143.577 25.2099C143.951 25.2099 144.29 25.1579 144.593 25.0539C144.896 24.9449 145.159 24.7869 145.381 24.5779C145.604 24.3699 145.772 24.1119 145.886 23.8039L148.286 24.0739C148.143 24.6925 147.845 25.2644 147.42 25.7359C146.998 26.2039 146.459 26.5689 145.8 26.8289C145.142 27.0849 144.389 27.2129 143.542 27.2129ZM153.139 20.6079V26.9999H150.568V16.0899H153.025V17.9449H153.153C153.393 17.3474 153.812 16.8388 154.353 16.4889C154.907 16.1289 155.592 15.9489 156.406 15.9489C157.159 15.9489 157.815 16.1089 158.373 16.4319C158.937 16.7539 159.372 17.2199 159.68 17.8309C159.993 18.4409 160.146 19.1829 160.142 20.0539V26.9999H157.571V20.4519C157.571 19.7219 157.381 19.1519 157.003 18.7399C156.628 18.3279 156.11 18.1219 155.447 18.1219C154.997 18.1219 154.597 18.2219 154.247 18.4209C153.899 18.6176 153.615 18.9111 153.43 19.2659C153.236 19.6349 153.139 20.0819 153.139 20.6079ZM166.804 27.1919C165.947 27.1919 165.18 26.9719 164.503 26.5319C163.825 26.0909 163.29 25.4519 162.897 24.6139C162.504 23.7759 162.308 22.7579 162.308 21.5599C162.308 20.3479 162.507 19.3249 162.904 18.4909C163.307 17.6529 163.849 17.0209 164.531 16.5949C165.213 16.1642 166.005 15.9398 166.811 15.9489C167.45 15.9489 167.976 16.0579 168.387 16.2759C168.799 16.4889 169.126 16.7459 169.368 17.0499C169.609 17.3479 169.796 17.6299 169.929 17.8949H170.035V12.4549H172.613V26.9999H170.085V25.2809H169.929C169.77 25.584 169.577 25.8675 169.353 26.1259C169.075 26.4404 168.737 26.6964 168.359 26.8789C167.947 27.0879 167.429 27.1919 166.804 27.1919ZM167.521 25.0819C168.065 25.0819 168.529 24.9359 168.913 24.6419C169.297 24.3439 169.588 23.9299 169.787 23.3989C169.985 22.8689 170.085 22.2509 170.085 21.5449C170.085 20.8399 169.985 20.2269 169.787 19.7059C169.592 19.1859 169.304 18.7799 168.92 18.4909C168.541 18.2029 168.075 18.0579 167.521 18.0579C166.948 18.0579 166.47 18.2079 166.086 18.5059C165.703 18.8039 165.414 19.2159 165.22 19.7409C165.026 20.2669 164.929 20.8679 164.929 21.5459C164.929 22.2269 165.026 22.8359 165.22 23.3709C165.419 23.9009 165.71 24.3209 166.093 24.6279C166.482 24.9309 166.958 25.0819 167.521 25.0819ZM180.112 27.2129C179.046 27.2129 178.123 26.9789 177.342 26.5099C176.56 26.0414 175.929 25.3588 175.523 24.5429C175.097 23.6999 174.884 22.7149 174.884 21.5879C174.884 20.4609 175.097 19.4739 175.523 18.6259C175.927 17.8071 176.559 17.1219 177.342 16.6519C178.123 16.1829 179.046 15.9489 180.112 15.9489C181.177 15.9489 182.1 16.1829 182.881 16.6519C183.663 17.1209 184.292 17.8066 184.692 18.6259C185.123 19.4739 185.339 20.4609 185.339 21.5879C185.339 22.7149 185.123 23.6999 184.692 24.5429C184.29 25.3594 183.662 26.0425 182.881 26.5099C182.1 26.9789 181.177 27.2129 180.112 27.2129ZM180.126 25.1529C180.703 25.1529 181.186 24.9949 181.575 24.6779C181.963 24.3559 182.252 23.9249 182.441 23.3849C182.635 22.8449 182.732 22.2439 182.732 21.5809C182.732 20.9129 182.635 20.3099 182.441 19.7699C182.252 19.2249 181.963 18.7919 181.575 18.4699C181.186 18.1479 180.703 17.9869 180.126 17.9869C179.534 17.9869 179.041 18.1479 178.648 18.4699C178.26 18.7919 177.969 19.2249 177.775 19.7699C177.585 20.3099 177.491 20.9129 177.491 21.5809C177.491 22.2439 177.585 22.8449 177.775 23.3849C177.969 23.9249 178.26 24.3549 178.648 24.6779C179.041 24.9949 179.534 25.1529 180.126 25.1529Z" fill="white"/>
</svg>
